<svg width="25" height="25" viewBox="0 0 25 25" fill="none" xmlns="http://www.w3.org/2000/svg">
<path d="M23.8281 9.375C23.8281 9.6858 23.7047 9.98387 23.4849 10.2036C23.2651 10.4234 22.967 10.5469 22.6562 10.5469H21.4844V11.7188C21.4844 12.0296 21.3609 12.3276 21.1411 12.5474C20.9214 12.7672 20.6233 12.8906 20.3125 12.8906C20.0017 12.8906 19.7036 12.7672 19.4839 12.5474C19.2641 12.3276 19.1406 12.0296 19.1406 11.7188V10.5469H17.9687C17.6579 10.5469 17.3599 10.4234 17.1401 10.2036C16.9203 9.98387 16.7969 9.6858 16.7969 9.375C16.7969 9.0642 16.9203 8.76613 17.1401 8.54636C17.3599 8.32659 17.6579 8.20313 17.9687 8.20312H19.1406V7.03125C19.1406 6.72045 19.2641 6.42238 19.4839 6.20261C19.7036 5.98284 20.0017 5.85938 20.3125 5.85938C20.6233 5.85938 20.9214 5.98284 21.1411 6.20261C21.3609 6.42238 21.4844 6.72045 21.4844 7.03125V8.20312H22.6562C22.967 8.20313 23.2651 8.32659 23.4849 8.54636C23.7047 8.76613 23.8281 9.0642 23.8281 9.375ZM14.0625 5.85938H14.4531V6.25C14.4531 6.5608 14.5766 6.85887 14.7963 7.07864C15.0161 7.29841 15.3142 7.42187 15.625 7.42188C15.9358 7.42187 16.2339 7.29841 16.4536 7.07864C16.6734 6.85887 16.7969 6.5608 16.7969 6.25V5.85938H17.1875C17.4983 5.85938 17.7964 5.73591 18.0161 5.51614C18.2359 5.29637 18.3594 4.9983 18.3594 4.6875C18.3594 4.3767 18.2359 4.07863 18.0161 3.85886C17.7964 3.63909 17.4983 3.51562 17.1875 3.51562H16.7969V3.125C16.7969 2.8142 16.6734 2.51613 16.4536 2.29636C16.2339 2.07659 15.9358 1.95312 15.625 1.95312C15.3142 1.95312 15.0161 2.07659 14.7963 2.29636C14.5766 2.51613 14.4531 2.8142 14.4531 3.125V3.51562H14.0625C13.7517 3.51562 13.4536 3.63909 13.2338 3.85886C13.0141 4.07863 12.8906 4.3767 12.8906 4.6875C12.8906 4.9983 13.0141 5.29637 13.2338 5.51614C13.4536 5.73591 13.7517 5.85937 14.0625 5.85938ZM21.4658 14.6855C21.6016 14.8431 21.6929 15.034 21.7305 15.2386C21.7681 15.4432 21.7505 15.6541 21.6797 15.8496C21.1154 17.3897 20.1722 18.7629 18.9373 19.8424C17.7023 20.9219 16.2153 21.6729 14.6136 22.0262C13.0119 22.3795 11.3469 22.3236 9.77246 21.8638C8.19799 21.4039 6.76471 20.5549 5.60488 19.3951C4.44506 18.2353 3.59605 16.802 3.13621 15.2275C2.67638 13.6531 2.62052 11.9881 2.97381 10.3864C3.32709 8.78465 4.07813 7.29769 5.15762 6.06274C6.23711 4.82779 7.61027 3.88463 9.15038 3.32031C9.34565 3.24897 9.55638 3.23085 9.76096 3.26783C9.96554 3.3048 10.1566 3.39553 10.3145 3.53071C10.4725 3.66589 10.5916 3.84066 10.6597 4.03708C10.7278 4.23349 10.7425 4.4445 10.7021 4.64844C10.5987 5.17601 10.5467 5.71238 10.5469 6.25C10.5492 8.42489 11.4142 10.51 12.9521 12.0479C14.49 13.5858 16.5751 14.4508 18.75 14.4531C19.2866 14.453 19.822 14.401 20.3486 14.2979C20.5525 14.2576 20.7634 14.2723 20.9597 14.3404C21.156 14.4086 21.3307 14.5277 21.4658 14.6855ZM18.5547 16.7969C15.8259 16.7436 13.2238 15.6359 11.2939 13.7061C9.36406 11.7762 8.25636 9.17405 8.20312 6.44531C7.32485 7.07131 6.59357 7.8812 6.06019 8.8186C5.5268 9.756 5.20413 10.7984 5.11463 11.8732C5.02513 12.948 5.17096 14.0294 5.54196 15.0421C5.91296 16.0548 6.50022 16.9745 7.26285 17.7371C8.02548 18.4998 8.94517 19.087 9.95788 19.458C10.9706 19.829 12.052 19.9749 13.1268 19.8854C14.2016 19.7959 15.244 19.4732 16.1814 18.9398C17.1188 18.4064 17.9287 17.6751 18.5547 16.7969Z" fill="white"/>
</svg>
